#N canvas 50 50 300 500 10;
#X obj 0 0 cnv 15 300 550 cnv-s cnv-r PdWebParty 80 24 0 24 -99865
-262144 0;
#N canvas 315 262 878 533 sound 0;
#X obj 84 469 dac~;
#X obj 85 321 osc~;
#X obj 84 294 +~;
#X obj 80 246 osc~;
#X obj 82 271 *~;
#X obj 167 246 mtof~;
#X obj 79 224 mtof~;
#X obj 167 224 sig~;
#X obj 79 203 sig~;
#X obj 168 204 + 40;
#X obj 85 403 hip~ 40;
#X obj 85 353 *~;
#X obj 245 308 vline~;
#X obj 320 243 + 50;
#X obj 167 66 metro 125;
#X obj 245 328 *~;
#X obj 320 223 * 200;
#X obj 245 265 pack f f;
#X msg 245 287 \$1 5 \, 0 \$2 5;
#X obj 85 378 lop~ 2000;
#X obj 245 244 + 0.5;
#X obj 245 223 * 0.5;
#X obj 167 106 sel 0;
#X obj 167 86 random 4;
#X obj 78 180 random 120;
#X obj 168 180 random 120;
#X obj 244 180 random 100;
#X obj 320 179 random 100;
#X obj 245 202 / 99;
#X obj 320 200 / 99;
#X obj 167 45 r toggle-s;
#X obj 194 125 s button-r;
#X obj 78 127 r button-s;
#X obj 86 427 *~ 0.5;
#N canvas 726 271 468 501 show 0;
#X obj 52 132 random 100;
#X obj 52 152 / 99;
#X obj 52 328 + 5;
#X msg 67 266 285 \$1;
#X obj 67 286 -;
#X obj 52 308 *;
#X obj 129 130 random 100;
#X obj 129 150 / 99;
#X obj 144 284 -;
#X obj 129 306 *;
#X obj 129 326 + 45;
#X msg 144 264 405 \$1;
#X obj 66 182 random 100;
#X obj 66 202 / 99;
#X obj 66 242 + 15;
#X obj 150 182 random 100;
#X obj 150 202 / 99;
#X obj 150 242 + 15;
#X obj 53 354 pack f f;
#X msg 54 374 pos \$1 \$2;
#X obj 144 355 pack f f;
#X msg 145 375 vis_size \$1 \$2;
#X obj 245 212 * -65536;
#X obj 308 212 * -256;
#X obj 360 214 * -1;
#X obj 295 312 +;
#X obj 280 335 +;
#X obj 280 357 - 1;
#X msg 281 378 color \$1 \$1;
#X obj 191 423 s;
#X obj 166 74 t b b b b b b b s;
#X obj 166 50 inlet;
#X obj 228 164 + 128;
#X obj 226 132 random 128;
#X obj 298 132 random 128;
#X obj 367 133 random 128;
#X obj 302 165 + 128;
#X obj 360 165 + 128;
#X obj 66 222 * 185;
#X obj 150 222 * 185;
#X connect 0 0 1 0;
#X connect 1 0 5 0;
#X connect 2 0 18 0;
#X connect 3 0 4 0;
#X connect 4 0 5 1;
#X connect 5 0 2 0;
#X connect 6 0 7 0;
#X connect 7 0 9 0;
#X connect 8 0 9 1;
#X connect 9 0 10 0;
#X connect 10 0 18 1;
#X connect 11 0 8 0;
#X connect 12 0 13 0;
#X connect 13 0 38 0;
#X connect 14 0 3 0;
#X connect 14 0 20 0;
#X connect 15 0 16 0;
#X connect 16 0 39 0;
#X connect 17 0 11 0;
#X connect 17 0 20 1;
#X connect 18 0 19 0;
#X connect 19 0 29 0;
#X connect 20 0 21 0;
#X connect 21 0 29 0;
#X connect 22 0 26 0;
#X connect 23 0 25 0;
#X connect 24 0 25 1;
#X connect 25 0 26 1;
#X connect 26 0 27 0;
#X connect 27 0 28 0;
#X connect 28 0 29 0;
#X connect 30 0 0 0;
#X connect 30 1 12 0;
#X connect 30 2 6 0;
#X connect 30 3 15 0;
#X connect 30 4 33 0;
#X connect 30 5 34 0;
#X connect 30 6 35 0;
#X connect 30 7 29 1;
#X connect 31 0 30 0;
#X connect 32 0 22 0;
#X connect 33 0 32 0;
#X connect 34 0 36 0;
#X connect 35 0 37 0;
#X connect 36 0 23 0;
#X connect 37 0 24 0;
#X connect 38 0 14 0;
#X connect 39 0 17 0;
#X restore 430 248 pd show;
#X msg 430 226 symbol show\$1-r;
#X msg 649 331 symbol show\$1-r;
#X obj 608 389 s;
#X obj 567 213 t b f;
#X obj 554 280 * -65536;
#X obj 617 280 * -256;
#X obj 669 282 * -1;
#X obj 620 302 +;
#X obj 605 325 +;
#X obj 605 347 - 1;
#X obj 569 254 unpack f f f;
#X msg 567 233 220 220 220;
#X msg 567 191 0 \, 1 \, 2 \, 3 \, 4 \, 5 \, 6 \, 7;
#X obj 567 169 loadbang;
#X obj 78 149 t b b b b b, f 40;
#X obj 430 178 random 4;
#X msg 606 366 pos 70 310 \, vis_size 15 15 \, color 0 0;
#X connect 1 0 11 0;
#X connect 2 0 1 0;
#X connect 3 0 4 0;
#X connect 4 0 2 0;
#X connect 5 0 4 1;
#X connect 5 0 2 1;
#X connect 6 0 3 0;
#X connect 7 0 5 0;
#X connect 8 0 6 0;
#X connect 9 0 7 0;
#X connect 10 0 33 0;
#X connect 11 0 19 0;
#X connect 12 0 15 0;
#X connect 12 0 15 1;
#X connect 13 0 17 1;
#X connect 14 0 23 0;
#X connect 15 0 11 1;
#X connect 16 0 13 0;
#X connect 17 0 18 0;
#X connect 18 0 12 0;
#X connect 19 0 10 0;
#X connect 20 0 17 0;
#X connect 21 0 20 0;
#X connect 22 1 31 0;
#X connect 23 0 22 0;
#X connect 24 0 8 0;
#X connect 25 0 9 0;
#X connect 26 0 28 0;
#X connect 27 0 29 0;
#X connect 28 0 21 0;
#X connect 29 0 16 0;
#X connect 30 0 14 0;
#X connect 32 0 49 0;
#X connect 33 0 0 0;
#X connect 33 0 0 1;
#X connect 35 0 34 0;
#X connect 36 0 37 1;
#X connect 38 0 46 0;
#X connect 38 1 36 0;
#X connect 39 0 43 0;
#X connect 40 0 42 0;
#X connect 41 0 42 1;
#X connect 42 0 43 1;
#X connect 43 0 44 0;
#X connect 44 0 51 0;
#X connect 45 0 39 0;
#X connect 45 1 40 0;
#X connect 45 2 41 0;
#X connect 46 0 45 0;
#X connect 47 0 38 0;
#X connect 48 0 47 0;
#X connect 49 0 24 0;
#X connect 49 1 25 0;
#X connect 49 2 26 0;
#X connect 49 3 27 0;
#X connect 49 4 50 0;
#X connect 50 0 35 0;
#X connect 51 0 37 0;
#X restore 4 513 pd sound;
#X obj 5 45 cnv 15 290 450 cnv2-s cnv2-r empty 20 12 0 14 -228856 -66577
0;
#X obj 70 310 cnv 15 15 15 show0-s show0-r empty 20 12 0 14 -262144
-66577 0;
#X obj 70 310 cnv 15 15 15 show1-s show1-r empty 20 12 0 14 -262144
-66577 0;
#X obj 70 310 cnv 15 15 15 show2-s show2-r empty 20 12 0 14 -262144
-66577 0;
#X obj 70 310 cnv 15 15 15 show3-s show3-r empty 20 12 0 14 -262144
-66577 0;
#X obj 70 310 cnv 15 15 15 show4-s show4-r empty 20 12 0 14 -262144
-66577 0;
#X obj 70 310 cnv 15 15 15 show5-s show5-r empty 20 12 0 14 -262144
-66577 0;
#X obj 70 310 cnv 15 15 15 show6-s show6-r empty 20 12 0 14 -262144
-66577 0;
#X obj 70 310 cnv 15 15 15 show7-s show7-r empty 20 12 0 14 -262144
-66577 0;
#X text 11 130 Sharing:;
#X text 11 49 PdWebParty:;
#X text 11 145 - Upload your patch somewhere on the internet;
#X text 21 160 (e.g. Patchstorage) and put the download LINK:;
#X text 21 175 https://pdwebparty.herokuapp.com/?url=LINK;
#X text 11 64 - Run your pd patches in the browser.;
#X text 11 80 - GUI objects should have send/receive names.;
#X text 11 95 - Currently \, only [bng] \, [tgl] \, [cnv] are supported.
;
#X text 11 110 - Drag & Drop your pd patch here to upload.;
#X obj 21 260 bng 120 125 50 0 button-s button-r button 26 60 0 20
-204786 -4034 -13381;
#X obj 158 260 tgl 120 0 toggle-s toggle-r toggle 24 60 0 20 -261234
-258113 -86277 0 1;
